<svg width="83" height="54" viewBox="0 0 83 54" fill="none" xmlns="http://www.w3.org/2000/svg">
<g clip-path="url(#clip0)">
<path fill-rule="evenodd" clip-rule="evenodd" d="M48.5044 44.1717C48.5044 44.1717 50.747 37.8488 66.0986 39.042C81.4502 40.2352 83.0005 40.9205 83.0005 40.9205C83.0005 40.9205 59.5438 61.0801 48.5044 51.341C48.5044 51.341 59.0261 53.3912 66.0986 44.6757C66.0986 44.6757 63.6075 43.2819 59.2354 43.0429C57.46 42.9542 55.6807 43.1022 53.9449 43.4831C52.1589 43.8912 50.3364 44.1219 48.5044 44.1717V44.1717Z" fill="#F1AD32"/>
<path fill-rule="evenodd" clip-rule="evenodd" d="M45.4874 38.4058C45.4874 38.4058 50.5932 41.5014 60.3851 32.0657C70.177 22.63 69.7438 19.8945 69.7438 19.8945C69.7438 19.8945 43.9254 21.4423 41.4248 33.4623C41.4248 33.4623 47.4395 26.1452 57.1939 28.1826C56.3083 30.0841 55.0289 31.7788 53.4391 33.1561C52.2803 34.2093 50.9848 35.1037 49.587 35.8154C48.1371 36.5414 46.7638 37.4091 45.4874 38.4058Z" fill="#F1AD32"/>
<path fill-rule="evenodd" clip-rule="evenodd" d="M31.5858 23.4363C31.5858 23.4363 28.6644 19.4981 36.2232 12.1304C43.782 4.76268 46.6968 2.54297 46.6968 2.54297C46.6968 2.54297 45.6704 16.2403 42.4041 22.7488C41.8718 23.7171 41.1748 24.5868 40.344 25.3192C38.9728 26.5224 38.801 27.3755 38.801 27.3755C38.801 27.3755 37.9391 25.6626 39.8342 19.4981C41.7292 13.3336 40.5231 12.3021 37.6017 15.7317C34.6802 19.1614 32.6201 21.0376 31.5858 23.4363Z" fill="#F1AD32"/>
<path fill-rule="evenodd" clip-rule="evenodd" d="M24.1328 21.8414C24.1328 21.8414 30.0367 16.8896 21.1772 0C21.1772 0 12.3171 15.0139 18.047 21.1545C18.047 21.1545 19.2597 12.7953 21.0025 10.9196C21.0025 10.9196 23.4354 11.6043 23.7841 16.7179C23.7852 16.7284 23.7852 21.5046 24.1328 21.8414Z" fill="#F1AD32"/>
<path fill-rule="evenodd" clip-rule="evenodd" d="M41.4695 50.5857C41.4695 50.5857 45.0939 34.9605 33.8737 27.755C33.8737 27.755 24.3718 19.6876 13.1516 25.3508C11.6655 26.363 10.2786 27.5116 9.00895 28.7815C7.62993 30.3249 7.45644 30.4966 6.76357 30.4966C6.76357 30.4966 5.72371 32.5563 5.89721 32.9008C6.07071 33.2454 7.27399 33.9345 9.00895 32.2117C10.7439 30.4888 16.0898 25.1691 22.653 27.0587C29.2162 28.9483 39.4044 32.549 35.9529 49.5448C35.9378 49.5525 37.6638 51.9568 41.4695 50.5857Z" fill="#F1AD32"/>
<path fill-rule="evenodd" clip-rule="evenodd" d="M4.01451 18.4094C4.01451 18.4094 7.11001 18.9224 7.96462 21.814C8.25023 22.9488 8.62447 24.0598 9.08395 25.1369C9.08395 25.1369 12.1795 22.4087 7.53984 16.2758C2.90021 10.143 0.319038 7.92773 0.319038 7.92773C0.319038 7.92773 -1.74221 22.5798 4.61391 26.3268C4.61391 26.3268 3.24217 21.7251 4.01451 18.4094Z" fill="#F1AD32"/>
<path fill-rule="evenodd" clip-rule="evenodd" d="M14.2675 34.8222C14.2675 34.8222 15.8614 33.8068 12.1078 34.0336C8.3541 34.2603 4.14374 37.3126 3.11619 43.7511C2.08865 50.1896 6.53016 49.1742 6.53016 49.1742C6.53016 49.1742 10.5122 49.1742 15.1792 40.0241C19.8463 30.8741 21.4402 27.2549 23.1433 25.2236C24.8463 23.1923 27.2394 20.5892 28.8334 20.9293C28.8334 20.9293 29.5184 21.4962 28.4909 22.3987C28.4909 22.3987 28.0342 22.3987 28.0342 21.8318C28.0342 21.8318 24.0521 22.5121 22.2299 30.9824C22.2299 30.9824 21.2074 38.3285 21.0932 39.0037C21.0932 39.0037 24.8469 31.2092 29.2856 27.1416C33.7243 23.074 37.3638 21.1516 39.866 20.4758C39.866 20.4758 41.2316 20.1357 41.2316 20.9293C41.2316 21.7229 40.2091 21.9447 40.2091 21.9447C40.2091 21.9447 40.321 21.0426 39.4149 21.3778C38.5089 21.7129 30.3142 25.2186 27.9211 32.1106C27.9211 32.1106 24.0533 40.0186 25.8705 46.1219C27.6877 52.2253 33.8345 54.8235 43.5061 45.7818L43.9628 46.1219C43.9628 46.1219 38.0443 52.4471 31.3317 52.561C31.3317 52.561 19.2715 49.6227 26.3272 32.4508C26.3272 32.4508 23.0252 35.1623 18.3632 47.0245L17.569 46.6844C17.569 46.6844 19.3913 40.0186 19.6196 37.5338C19.8479 35.0489 20.9852 31.5438 21.2135 30.4145C21.4419 29.2852 17.9115 37.3059 14.6095 42.8435C14.6095 42.8435 9.60495 51.6584 4.47954 50.0762C-0.645871 48.4939 2.99978 40.0169 2.99978 40.0169C2.99978 40.0169 5.73039 34.4804 11.763 33.2366C11.763 33.2366 15.5167 32.5564 16.2017 33.9169C16.8868 35.2774 14.3795 35.2729 14.3795 35.2729L14.2675 34.8222Z" fill="#2DB7F1"/>
</g>
<defs>
<clipPath id="clip0">
<rect width="83" height="54" fill="white"/>
</clipPath>
</defs>
</svg>
