<svg width="427" height="189" viewBox="0 0 427 189" fill="none" xmlns="http://www.w3.org/2000/svg">
<g clip-path="url(#clip0)">
<path fill-rule="evenodd" clip-rule="evenodd" d="M21.3478 59.418C21.2267 57.0405 21.0578 54.1596 21.0816 52.0486H21.01C20.4299 54.0421 19.7029 56.177 18.8327 58.5306L15.7833 66.813H14.0888L11.3055 58.6757C10.4831 56.2744 9.80562 54.0659 9.32095 52.0247H9.27321C9.22548 54.1615 9.10432 57.0185 8.93541 59.587L8.47644 66.9086H6.34497L7.55481 49.8218H10.3839L13.3122 58.0804C14.0465 60.1933 14.6193 62.0655 15.0544 63.8421H15.1279C15.563 62.1132 16.1688 60.241 16.9436 58.0804L20.0168 49.8145H22.8478L23.9126 66.9012H21.7352L21.3478 59.418Z" fill="white"/>
<path fill-rule="evenodd" clip-rule="evenodd" d="M34.4596 67.0997L34.276 65.5196H34.2008C33.7384 66.1184 33.142 66.6002 32.4597 66.9264C31.7773 67.2525 31.028 67.4138 30.272 67.3973C29.7711 67.4386 29.2672 67.3752 28.7921 67.211C28.3171 67.0468 27.8814 66.7855 27.5128 66.4437C27.1441 66.1019 26.8506 65.6871 26.6508 65.2256C26.451 64.7641 26.3494 64.2661 26.3524 63.7632C26.3524 60.7022 29.1227 59.0468 34.0815 59.0726V58.8025C34.1283 58.4077 34.0849 58.0074 33.9546 57.6319C33.8242 57.2564 33.6103 56.9154 33.329 56.6347C33.0477 56.3541 32.7063 56.1411 32.3306 56.0118C31.955 55.8825 31.5549 55.8404 31.1606 55.8885C29.9801 55.8928 28.8228 56.2173 27.8119 56.8274L27.2832 55.3208C28.5661 54.5802 30.0248 54.1994 31.5057 54.2185C35.4345 54.2185 36.391 56.8605 36.391 59.3794V64.0957C36.3754 65.1119 36.4429 66.1276 36.5929 67.1327H34.4523L34.4596 67.0997ZM34.1071 60.6545C31.5644 60.6049 28.6435 61.0495 28.6435 63.4931C28.622 63.7892 28.6646 64.0866 28.7686 64.3647C28.8725 64.6429 29.0352 64.8953 29.2457 65.1046C29.4561 65.314 29.7092 65.4754 29.9878 65.5778C30.2663 65.6801 30.5637 65.7211 30.8595 65.6978C31.5377 65.7218 32.2059 65.5288 32.7672 65.1468C33.3284 64.7649 33.7534 64.214 33.9805 63.5739C34.0587 63.3365 34.1013 63.0889 34.1071 62.839V60.6545Z" fill="white"/>
<path fill-rule="evenodd" clip-rule="evenodd" d="M42.218 60.2281H42.2657C42.576 59.7945 43 59.2635 43.3415 58.8299L46.9252 54.5895H49.6L44.8947 59.6493L50.2702 66.9011H47.5714L43.3672 60.9979L42.2198 62.284V66.9103H40.0149V48.8369H42.218V60.2281Z" fill="white"/>
<path fill-rule="evenodd" clip-rule="evenodd" d="M53.3343 61.2219C53.272 61.7938 53.3352 62.3724 53.5196 62.9173C53.704 63.4621 54.0051 63.9601 54.4018 64.3764C54.7986 64.7927 55.2814 65.1172 55.8165 65.3273C56.3516 65.5374 56.9261 65.628 57.4999 65.5928C58.6595 65.6229 59.8121 65.4036 60.8798 64.9498L61.2616 66.6033C59.9891 67.1588 58.6105 67.4284 57.2227 67.3934C56.3944 67.4288 55.5682 67.2851 54.8004 66.9721C54.0326 66.6592 53.3412 66.1842 52.7734 65.5797C52.2056 64.9752 51.7746 64.2553 51.5099 63.469C51.2452 62.6828 51.153 61.8486 51.2395 61.0235C51.2395 57.2203 53.4058 54.209 56.9528 54.209C60.9293 54.209 61.9758 57.8395 61.9758 60.16C61.9725 60.515 61.9486 60.8696 61.9042 61.2219H53.3343ZM59.8333 59.5922C59.8572 58.1353 59.2623 55.8644 56.7618 55.8644C54.5239 55.8644 53.5491 58.0122 53.3581 59.5922H59.8333Z" fill="white"/>
<path fill-rule="evenodd" clip-rule="evenodd" d="M77.0173 67.0996L76.8503 65.5196H76.7787C76.3518 66.1106 75.7889 66.5898 75.1375 66.9167C74.4862 67.2436 73.7657 67.4084 73.0371 67.3973C72.5474 67.4268 72.057 67.354 71.597 67.1833C71.137 67.0126 70.7176 66.7479 70.3656 66.4059C70.0135 66.064 69.7365 65.6524 69.5523 65.1973C69.3681 64.7423 69.2807 64.2538 69.2956 63.7631C69.2956 60.7022 71.9337 59.0468 76.6575 59.0725V58.8024C76.7106 58.4186 76.6763 58.0278 76.5573 57.6591C76.4382 57.2904 76.2375 56.9533 75.9701 56.6732C75.7026 56.393 75.3754 56.1769 75.0128 56.041C74.6502 55.9052 74.2617 55.853 73.8761 55.8885C72.746 55.8947 71.6406 56.2202 70.6872 56.8274L70.1841 55.3208C71.3974 54.582 72.7939 54.2 74.2139 54.2184C77.9555 54.2184 78.8661 56.8604 78.8661 59.3793V64.0957C78.8483 65.1112 78.9097 66.1267 79.0497 67.1327H77.0118L77.0173 67.0996ZM76.6814 60.6544C74.2598 60.6048 71.4784 61.0494 71.4784 63.493C71.4499 63.7816 71.4842 64.0729 71.5788 64.347C71.6734 64.6211 71.8261 64.8715 72.0265 65.0809C72.2269 65.2904 72.4702 65.454 72.7397 65.5604C73.0092 65.6669 73.2986 65.7138 73.5879 65.6978C74.2462 65.7121 74.8915 65.513 75.4275 65.1302C75.9635 64.7474 76.3614 64.2015 76.562 63.5739C76.6362 63.3357 76.6764 63.0883 76.6814 62.839V60.6544Z" fill="white"/>
<path fill-rule="evenodd" clip-rule="evenodd" d="M315.248 144.212C315.248 144.212 322.512 123.572 372.245 127.465C421.977 131.359 427 133.598 427 133.598C427 133.598 351.011 199.417 315.248 167.629C315.248 167.629 349.329 174.322 372.245 145.868C372.245 145.868 364.167 141.317 350.012 140.54C344.261 140.25 338.497 140.733 332.874 141.976C327.087 143.305 321.183 144.054 315.248 144.212Z" fill="#F1AD32"/>
<path fill-rule="evenodd" clip-rule="evenodd" d="M305.471 125.391C305.471 125.391 322.013 135.496 353.735 104.689C385.457 73.881 384.046 64.9536 384.046 64.9536C384.046 64.9536 300.412 70.0061 292.312 109.251C292.312 109.251 311.798 85.3659 343.397 92.0077C340.529 98.2158 336.384 103.749 331.234 108.246C327.479 111.685 323.28 114.605 318.75 116.929C314.054 119.301 309.606 122.135 305.471 125.391Z" fill="#F1AD32"/>
<path fill-rule="evenodd" clip-rule="evenodd" d="M260.439 76.5157C260.439 76.5157 250.973 63.6547 275.462 39.6028C299.951 15.5508 309.391 8.30273 309.391 8.30273C309.391 8.30273 306.066 53.0223 295.484 74.2706C293.76 77.4323 291.502 80.2718 288.811 82.6633C284.37 86.5914 283.812 89.3731 283.812 89.3731C283.812 89.3731 281.019 83.7859 287.16 63.651C293.301 43.5162 289.393 40.1576 279.927 51.3541C270.461 62.5505 263.78 68.6834 260.439 76.5157Z" fill="#F1AD32"/>
<path fill-rule="evenodd" clip-rule="evenodd" d="M236.292 71.3015C236.292 71.3015 255.418 55.1333 226.716 0C226.716 0 198.013 49.017 216.576 69.0673C216.576 69.0673 220.505 41.7763 226.152 35.6526C226.152 35.6526 234.033 37.8886 235.163 54.5766C235.163 54.606 235.163 70.2083 236.292 71.3015Z" fill="#F1AD32"/>
<path fill-rule="evenodd" clip-rule="evenodd" d="M292.455 165.158C292.455 165.158 304.205 114.143 267.854 90.6188C267.854 90.6188 237.072 64.2813 200.721 82.7681C195.904 86.0745 191.409 89.8268 187.294 93.9755C182.827 99.0134 182.265 99.5756 180.02 99.5756C180.02 99.5756 176.651 106.3 177.213 107.426C177.775 108.553 181.68 110.801 187.296 105.176C192.912 99.5499 210.244 82.1875 231.506 88.3516C252.767 94.5157 285.773 106.278 274.592 161.766C274.537 161.782 280.127 169.633 292.455 165.158Z" fill="#F1AD32"/>
<path fill-rule="evenodd" clip-rule="evenodd" d="M61.517 101.177C61.517 101.177 69.347 96.1486 50.9055 97.273C32.464 98.3974 11.7828 113.504 6.73408 145.382C1.68539 177.261 23.5159 172.231 23.5159 172.231C23.5159 172.231 43.0773 172.231 66.0057 126.929C88.9341 81.6267 96.7624 63.7113 105.129 53.654C113.495 43.5967 125.252 30.7099 133.08 32.3947C133.08 32.3947 136.447 35.2021 131.396 39.6685C131.396 39.6685 129.153 39.6685 129.153 36.8612C129.153 36.8612 109.592 40.2289 100.64 82.1632C100.64 82.1632 95.6149 118.532 95.055 121.876C95.055 121.876 113.495 83.2931 135.299 63.1491C157.104 43.005 174.984 33.4934 187.277 30.1495C187.277 30.1495 193.985 28.4647 193.985 32.3947C193.985 36.3247 188.961 37.4234 188.961 37.4234C188.961 37.4234 189.521 32.9569 185.058 34.616C180.595 36.2751 140.348 53.6301 128.593 87.754C128.593 87.754 109.592 126.905 118.519 157.123C127.447 187.341 157.642 200.203 205.157 155.438L207.4 157.123C207.4 157.123 178.327 188.439 145.347 189C145.347 189 86.1014 174.452 120.761 89.437C120.761 89.437 104.541 102.862 81.6383 161.589L77.7352 159.904C77.7352 159.904 86.687 126.905 87.8087 114.602C88.9305 102.3 94.5171 84.9467 95.6388 79.3558C96.7605 73.7649 79.4187 113.48 63.1987 140.89C63.1987 140.89 38.6124 184.533 13.4461 176.697C-11.7203 168.861 6.1778 126.907 6.1778 126.907C6.1778 126.907 19.5926 99.4961 49.2276 93.3449C49.2276 93.3449 67.6672 89.9772 71.0324 96.7127C74.3976 103.448 62.0806 103.426 62.0806 103.426L61.517 101.177Z" fill="#2DB7F1"/>
<path fill-rule="evenodd" clip-rule="evenodd" d="M171.116 60.1051C171.116 60.1051 181.143 61.7789 183.912 71.2207C184.835 74.9225 186.045 78.5468 187.53 82.0607C187.53 82.0607 197.558 73.1535 182.528 53.1308C167.497 33.108 159.146 25.8838 159.146 25.8838C159.146 25.8838 152.469 73.7213 173.06 85.9539C173.058 85.9539 168.615 70.9304 171.116 60.1051Z" fill="#F1AD32"/>
<path fill-rule="evenodd" clip-rule="evenodd" d="M143.049 106.949C143.049 106.949 139.61 111.81 143.049 112.896C146.487 113.982 149.329 112.896 149.329 109.64C149.329 106.385 147.027 103.717 143.049 106.949Z" fill="#2DB7F1"/>
<path fill-rule="evenodd" clip-rule="evenodd" d="M274.012 119.578C274.012 119.578 265.622 121.259 258.354 134.655C251.085 148.05 244.939 148.618 244.939 148.618C244.939 148.618 238.231 151.42 238.792 141.359C238.733 139.158 239.151 136.971 240.019 134.948C240.886 132.925 242.182 131.115 243.817 129.643C249.404 124.625 271.209 103.97 276.233 93.9091C281.258 83.8481 296.357 64.8799 289.648 48.7026C289.648 48.7026 281.258 42.0039 256.11 87.2122C256.11 87.2122 240.452 117.366 233.184 135.221C233.184 135.221 230.378 143.04 219.207 148.618C219.207 148.618 212.499 151.98 213.622 140.238C214.506 134.649 217.268 129.529 221.452 125.724C221.452 125.724 228.161 120.146 227.599 124.042C227.199 126.557 226.444 129.001 225.355 131.302L227.599 133.543C227.599 133.543 237.672 126.844 233.184 121.266C233.184 121.266 228.721 114.568 215.866 124.627C212.536 128.327 209.714 132.456 207.476 136.903C205.415 140.977 202.33 144.444 198.524 146.963C198.524 146.963 194.621 150.323 196.28 144.721C197.94 139.119 200.184 131.884 200.184 131.884C200.184 131.884 201.867 126.306 205.768 126.866C206.23 125.624 206.316 124.274 206.017 122.984C205.718 121.693 205.046 120.519 204.085 119.607C204.085 119.607 200.182 118.486 199.06 120.728C199.06 120.728 191.792 116.271 183.402 123.53C178.453 128.014 174.295 133.3 171.101 139.167C169.333 142.468 166.85 145.331 163.833 147.547C163.833 147.547 159.93 150.347 161.59 145.866C162.794 142.036 164.287 138.304 166.056 134.701C166.056 134.701 169.959 129.683 165.494 126.881C161.03 124.079 159.91 124.64 159.91 124.64C159.91 124.64 161.593 118.501 159.91 115.701C158.964 114.924 157.779 114.5 156.556 114.5C155.332 114.5 154.147 114.924 153.201 115.701C149.836 118.503 151.518 123.521 154.323 125.76C154.323 125.76 153.201 133.578 140.908 144.734C140.908 144.734 136.445 149.191 137.005 145.285C137.565 141.379 141.468 128.527 141.468 128.527C141.468 128.527 142.028 126.286 146.493 126.286C146.952 125.044 147.038 123.694 146.738 122.404C146.439 121.114 145.769 119.939 144.81 119.027C141.444 115.664 136.979 123.484 135.858 126.846C134.736 130.208 125.784 150.839 131.955 153.639C138.125 156.439 146.491 144.701 151.516 138.002C153.909 135.072 155.971 131.886 157.663 128.502C157.808 128.35 157.982 128.23 158.175 128.148C158.368 128.065 158.575 128.023 158.785 128.023C158.995 128.023 159.202 128.065 159.395 128.148C159.588 128.23 159.763 128.35 159.908 128.502C161.03 129.622 161.03 131.303 159.346 134.64C157.663 137.976 149.834 150.837 155.981 154.174C162.127 157.51 169.396 146.356 169.396 146.356C169.396 146.356 168.836 154.736 174.421 154.174C179.084 153.963 183.488 151.966 186.721 148.596C190.086 145.234 188.964 149.147 188.964 149.147C188.964 149.147 188.404 155.286 193.427 154.725C198.45 154.165 206.279 144.666 206.279 144.666C206.279 144.666 206.279 154.725 213.547 154.725C220.815 154.725 225.847 151.363 230.327 145.785C230.327 145.785 232.011 144.104 232.011 145.785C232.011 147.466 233.132 154.165 239.841 154.165C246.549 154.165 251.572 150.268 256.061 145.226C256.061 145.226 256.061 154.727 265.572 154.727C267.719 154.625 269.822 154.076 271.745 153.116C273.669 152.155 275.371 150.804 276.744 149.149L277.304 141.89C277.304 141.89 272.279 149.149 267.23 148.589C266.614 148.599 266.004 148.465 265.448 148.199C264.893 147.933 264.406 147.541 264.028 147.054C263.649 146.568 263.389 146 263.268 145.395C263.146 144.791 263.166 144.166 263.327 143.571C263.327 143.571 275.628 137.993 277.864 134.633C280.166 131.318 287.427 116.802 274.012 119.578ZM263.962 82.7494C269.547 72.1538 280.742 54.2714 284.084 54.2714C287.425 54.2714 279.621 81.625 269.547 94.4603C259.474 107.296 249.986 120.133 245.523 122.374C245.523 122.38 258.378 93.3451 263.962 82.7494ZM188.496 141.359C188.496 141.359 183.471 149.178 177.325 148.058C177.325 148.058 173.96 146.937 178.447 137.462C182.934 127.987 190.747 121.265 194.107 123.499C194.083 123.493 199.108 127.397 188.496 141.353V141.359ZM274.572 131.324C271.25 134.313 267.481 136.762 263.401 138.583C263.401 138.583 265.084 129.082 272.352 124.068C279.621 119.054 276.817 129.639 274.572 131.318V131.324Z" fill="#2DB7F1"/>
</g>
<defs>
<clipPath id="clip0">
<rect width="427" height="189" fill="white"/>
</clipPath>
</defs>
</svg>
